<svg width="12" height="10" viewBox="0 0 12 10" fill="none" xmlns="http://www.w3.org/2000/svg">
<path d="M4.56309 1.0236L5.58115 2.06916C5.65082 2.14047 5.65063 2.25434 5.58079 2.32547L3.85561 4.08491L11.3166 4.08491C11.4177 4.08491 11.4999 4.16705 11.4999 4.26824L11.4999 5.73491C11.4999 5.8361 11.4177 5.91824 11.3166 5.91824L3.85561 5.91824L5.58078 7.67768C5.65046 7.74881 5.65063 7.86249 5.58115 7.93379L4.56309 8.97935C4.52863 9.01491 4.48132 9.03491 4.43182 9.03491C4.38232 9.03491 4.33501 9.01474 4.30055 8.97935L0.551937 5.12935C0.517283 5.0938 0.49988 5.04758 0.49988 5.00156C0.49988 4.95537 0.517304 4.90935 0.551937 4.8736L4.30055 1.0236C4.33501 0.98822 4.38232 0.968239 4.43182 0.968239C4.48132 0.968239 4.52863 0.98822 4.56309 1.0236Z" fill="white"/>
</svg>
